<?xml version="1.0" encoding="UTF-8" standalone="no"?>
<svg width="63px" height="35px" viewBox="0 0 63 35" version="1.1" xmlns="http://www.w3.org/2000/svg" xmlns:xlink="http://www.w3.org/1999/xlink" xmlns:sketch="http://www.bohemiancoding.com/sketch/ns">
    <!-- Generator: Sketch 3.0.4 (8053) - http://www.bohemiancoding.com/sketch -->
    <title>menu-icon-white</title>
    <desc>Created with Sketch.</desc>
    <defs></defs>
    <g id="Page-1" stroke="none" stroke-width="1" fill="none" fill-rule="evenodd" sketch:type="MSPage">
        <g id="menu-icon-white" sketch:type="MSLayerGroup" fill="#FFFFFF">
            <path d="M19.1118023,12.7949866 C18.9766804,12.4912887 18.8167401,12.1759101 18.6306028,11.8481637 C18.4444654,11.5197302 18.2548811,11.2125968 18.0611604,10.9267635 C17.8667503,10.6402431 17.677166,10.3750227 17.4910286,10.1317895 C17.3055807,9.88718216 17.144951,9.70647503 17.0098291,9.58898104 C16.6554788,9.25161525 16.2707949,9.02899506 15.8578458,8.91974626 C15.4435179,8.81049746 14.9161287,8.74728432 14.2742996,8.73010684 C13.9530404,8.73010684 13.6752131,8.72667134 13.4387498,8.71773905 C13.201597,8.70880676 12.965823,8.70468416 12.7293597,8.70468416 L11.9951513,8.70468416 L11.0575706,8.70468416 C11.0575706,9.12587607 11.0534342,9.69822983 11.0451614,10.4217455 C11.0361993,11.1452611 11.0327523,11.9031317 11.0327523,12.6932959 L11.0327523,15.0411144 L11.0327523,16.9594959 L11.0327523,22.5641653 C11.0327523,23.0520059 11.0451614,23.5192334 11.0699798,23.9651609 C11.0954875,24.4117755 11.1754576,24.7271541 11.3105795,24.9119838 C11.5642778,25.2823304 11.9227645,25.535183 12.3874185,25.6691673 C12.8513831,25.8038388 13.2698474,25.9055295 13.6414327,25.9721782 L13.6414327,26.2250307 L5.4093364,26.2250307 L5.4093364,25.9721782 C5.84779325,25.9220199 6.27039395,25.8375067 6.67575972,25.7200127 C7.08112548,25.6018316 7.47752908,25.3249306 7.8663493,24.8865612 C7.95045581,24.802735 8.01388038,24.663941 8.05593363,24.470179 C8.09798688,24.277104 8.13176736,24.0579193 8.15727507,23.8139991 C8.18278278,23.5700788 8.19932832,23.3055455 8.20829049,23.0190251 C8.21656326,22.7325047 8.22069965,22.4549165 8.22069965,22.1855736 C8.22069965,21.9498985 8.22483603,21.6393296 8.2331088,21.2511185 C8.24207097,20.8649686 8.24965435,20.4355315 8.25861651,19.9641814 C8.26688928,19.4935183 8.27171507,19.0049907 8.27171507,18.4992855 L8.27171507,17.0611866 L8.27171507,8.70468416 L7.33413439,8.70468416 L6.59992599,8.70468416 C6.38000817,8.70468416 6.14768119,8.70880676 5.90294505,8.71773905 C5.65820892,8.72667134 5.37486652,8.73010684 5.05498606,8.73010684 C4.41246753,8.74728432 3.8850784,8.82286525 3.47143986,8.95753673 C3.05780133,9.0922082 2.67380689,9.32788328 2.31876715,9.66456197 C2.18364522,9.78205596 2.02784138,9.95932759 1.8506662,10.1943156 C1.67280163,10.4299907 1.48735369,10.6862787 1.29363298,10.9638669 C1.09853347,11.2421421 0.913085523,11.5410303 0.735910351,11.8605315 C0.558735178,12.1800327 0.419476871,12.4912887 0.31813543,12.7949866 L0.0899448378,12.7187186 L0.849660948,7.92276509 C1.23779177,8.00659121 1.5969679,8.07392695 1.92649993,8.1247723 C2.25603197,8.17493056 2.73240568,8.20859842 3.35768927,8.22508881 C3.998829,8.24226629 4.57309716,8.25463408 5.07980437,8.26287927 C5.58651158,8.27181157 6.07598384,8.27524706 6.54891057,8.27524706 L7.99250906,8.27524706 L9.68980585,8.27524706 L11.3615949,8.27524706 C11.8683021,8.27524706 12.3577744,8.27181157 12.8307011,8.26287927 C13.3029385,8.25463408 13.7931001,8.24638889 14.2998073,8.2381437 C14.8065145,8.2292114 15.3800933,8.22508881 16.0219224,8.22508881 C16.5789557,8.20859842 17.0387838,8.16187567 17.4027857,8.08629474 C17.7654089,8.01071381 18.1411305,7.9138328 18.5299507,7.79565171 L19.3399929,12.7187186 L19.1118023,12.7949866" id="Fill-1" sketch:type="MSShapeGroup"></path>
            <path d="M38.6658746,26.2250307 L22.404365,26.2250307 L22.404365,25.9721782 C22.8262763,25.9055295 23.2433619,25.7955936 23.6576898,25.6444318 C24.0720177,25.4925828 24.3960346,25.2823304 24.6331873,25.0129874 C24.7172938,24.9119838 24.7889912,24.7649446 24.8489688,24.5711826 C24.9068782,24.3781076 24.9537572,24.1548003 24.9875377,23.9026349 C25.0213182,23.6490952 25.0502729,23.384562 25.07647,23.1069738 C25.1019777,22.8293857 25.1143868,22.5559201 25.1143868,22.2865772 C25.1143868,22.0509021 25.1178338,21.7307138 25.126796,21.3266994 C25.1357582,20.9233721 25.1433415,20.4815672 25.1523037,20.0019718 C25.1605765,19.5223765 25.1654022,19.0304133 25.1654022,18.5247082 L25.1654022,17.0611866 L25.1654022,12.1635423 L25.1654022,11.2799326 C25.1654022,10.9769217 25.1523037,10.695211 25.126796,10.4341132 C25.1019777,10.1730155 25.0633714,9.94146301 25.0130454,9.7394558 C24.9627194,9.53744858 24.8861962,9.37804153 24.7848548,9.26054754 C24.5483914,8.97402711 24.231958,8.75552951 23.8355544,8.60368056 C23.4384614,8.4525187 23.019997,8.35151509 22.5808508,8.30135684 L22.5808508,8.04850427 L30.6612796,8.04850427 L30.6612796,8.30135684 C30.4420512,8.33433761 30.1800801,8.38587006 29.8760558,8.4525187 C29.5720314,8.51985443 29.2845527,8.62910323 29.0143088,8.78095219 C28.7447544,8.93211405 28.5124274,9.14648905 28.3187067,9.42407719 C28.1242966,9.70235243 28.0181293,10.0678893 28.0022732,10.5227491 C27.9843489,11.1115932 27.9719397,11.6502791 27.9636669,12.1388068 C27.9547048,12.6259602 27.9471214,13.1062427 27.9381592,13.5769057 C27.9298865,14.048943 27.9257501,14.5367835 27.9257501,15.0411144 L27.9257501,16.7327531 L27.9257501,18.2972783 L27.9257501,19.6357479 C27.9257501,20.0734302 27.9298865,20.5241673 27.9381592,20.9865852 C27.9471214,21.4490031 27.9512578,21.967076 27.9512578,22.5387427 C27.9678033,23.0774286 27.9891747,23.5913789 28.013993,24.0785323 C28.0395007,24.56706 28.128433,24.9291613 28.2801004,25.1648364 C28.3476614,25.2493496 28.4827833,25.3331757 28.6854662,25.4170019 C28.8881491,25.5015151 29.1328852,25.5722863 29.4196746,25.6313769 C29.7071534,25.6904674 30.0194505,25.7406257 30.3572553,25.7832258 C30.6950601,25.8251389 31.0321755,25.846439 31.3699803,25.846439 C31.5057916,25.846439 31.7208836,25.8423164 32.0166352,25.8333841 C32.3123867,25.8251389 32.637093,25.8079614 32.9914433,25.7832258 C33.3464831,25.7578032 33.7091062,25.7200127 34.0806915,25.6691673 C34.4522768,25.6190091 34.7818088,25.5516733 35.0692876,25.4671601 C35.7435184,25.2823304 36.3060668,25.0384101 36.7527964,24.7353993 C37.2009048,24.4323885 37.5848993,24.083342 37.9054691,23.6875728 C38.226039,23.2924907 38.4962828,22.8630536 38.7162007,22.3999486 C38.9354291,21.9375307 39.1470741,21.4531257 39.349757,20.9487947 L39.6027659,21.0243757 L38.6658746,26.2250307" id="Fill-2" sketch:type="MSShapeGroup"></path>
            <path d="M61.107144,18.0327451 C60.7686498,18.142681 60.524603,18.3151429 60.3722462,18.550818 C60.2543592,18.7356477 60.1861088,19.021481 60.1695633,19.4090051 C60.1523284,19.795842 60.144745,20.1833661 60.144745,20.570203 L60.144745,24.2551169 C60.0261686,24.3568076 59.7345534,24.5251469 59.2705889,24.760822 C58.8059349,24.99581 58.2406289,25.2362947 57.5732921,25.4795279 C56.9066447,25.7241353 56.1676105,25.9302651 55.3568789,26.0986044 C54.5468368,26.2662567 53.7361053,26.3507699 52.9253738,26.3507699 C51.3211456,26.3507699 49.8865093,26.1446401 48.620086,25.7323805 C47.3529733,25.3201209 46.2850965,24.7140992 45.4150767,23.9150027 C44.5457464,23.1159061 43.879099,22.1395379 43.414445,20.9865852 C42.9497911,19.8343196 42.7174641,18.5418857 42.7174641,17.1113448 C42.7174641,16.6915271 42.7602067,16.206435 42.8450026,15.660191 C42.9291092,15.1132599 43.0766402,14.5367835 43.2882853,13.9307619 C43.4985515,13.3247403 43.7943031,12.7111605 44.1748505,12.0872743 C44.5547086,11.4654494 45.0310823,10.8759181 45.6053505,10.3207419 C46.416082,9.52989049 47.4122615,8.89432358 48.5945783,8.41472823 C49.7762057,7.93444578 51.2115314,7.6953352 52.9005554,7.6953352 C53.9139699,7.6953352 54.8088079,7.78397102 55.5850695,7.95986846 C56.3613312,8.13645299 57.0162589,8.33090211 57.5484738,8.54046741 C58.0806887,8.75140692 58.4888121,8.94448184 58.7762908,9.12175347 C59.0630802,9.29833801 59.2243993,9.38697382 59.2581797,9.38697382 C59.2912708,9.38697382 59.3843395,9.28528312 59.5366963,9.08327591 C59.6890532,8.8812687 59.8738118,8.63803552 60.094419,8.35151509 L60.3219202,8.35151509 L60.3219202,13.8544939 L60.0178958,13.8544939 C59.8317585,13.0973104 59.5532419,12.3820399 59.1816566,11.7093697 C58.8100713,11.0360123 58.4136677,10.4801489 57.9917564,10.0431537 C57.4505793,9.47079995 56.7591136,9.00769498 55.9146016,8.65452591 C55.0694002,8.30135684 54.1242361,8.1247723 53.0777306,8.1247723 C51.9629748,8.1247723 50.9585225,8.37281517 50.0636845,8.86890091 C49.1681571,9.36498665 48.408441,10.0300988 47.7838468,10.8635503 C47.1592526,11.6963148 46.6773637,12.6555055 46.3395589,13.7418096 C46.0017541,14.8267394 45.8335411,15.9673244 45.8335411,17.1615031 C45.8335411,18.4745499 45.9934813,19.6735383 46.3147406,20.7591553 C46.6353104,21.8447723 47.0999644,22.7751048 47.708013,23.5487787 C48.3160617,24.3231397 49.0585428,24.9243516 49.9368353,25.3537887 C50.8151278,25.7832258 51.8195801,25.9969137 52.9508815,25.9969137 C53.761613,25.9969137 54.5171927,25.8581197 55.2176206,25.5812186 C55.918738,25.3036305 56.4723242,24.8528933 56.87769,24.2303813 C57.0121225,24.0118837 57.1127745,23.6243596 57.1810249,23.0691834 C57.2485858,22.51332 57.2816769,21.9416533 57.2816769,21.3528092 C57.2816769,20.7632779 57.2520328,20.2335243 57.193434,19.7621741 C57.1348353,19.2915111 56.9617965,18.9032999 56.6750071,18.6009762 C56.2854975,18.1632939 55.6016151,17.9021962 54.6226705,17.8183701 L54.6226705,17.5655175 L62.0447247,17.5655175 L62.0447247,17.8183701 C61.7572459,17.8520379 61.4449488,17.9234963 61.107144,18.0327451" id="Fill-3" sketch:type="MSShapeGroup"></path>
            <path d="M31.4975188,0.0802130075 C31.3575711,0.443688568 31.0183875,0.933590411 30.5427032,1.40287927 C30.0677083,1.87629073 29.578236,2.22190171 29.2142341,2.35519899 C29.578236,2.49193176 30.0677083,2.83548144 30.5427032,3.31026709 C31.0183875,3.78024306 31.3575711,4.2701449 31.4975188,4.63018496 C31.6353983,4.2701449 31.9787183,3.78024306 32.4509557,3.31026709 C32.9273294,2.83548144 33.417491,2.49193176 33.7814929,2.35519899 C33.417491,2.22190171 32.9273294,1.87629073 32.4509557,1.40287927 C31.9787183,0.933590411 31.6353983,0.443688568 31.4975188,0.0802130075" id="Fill-4" sketch:type="MSShapeGroup"></path>
            <path d="M31.49614,29.2867455 C31.3196543,29.7484762 30.8825762,30.3709882 30.2814215,30.970826 C29.6788881,31.5713508 29.0508469,32.0117815 28.5923975,32.1835564 C29.0508469,32.3573925 29.6788881,32.7950748 30.2814215,33.3962867 C30.8825762,33.9933761 31.3196543,34.615201 31.49614,35.0748705 C31.6705576,34.615201 32.1097039,33.9933761 32.7081009,33.3962867 C33.3120132,32.7950748 33.9366074,32.3573925 34.4033295,32.1835564 C33.9366074,32.0117815 33.3120132,31.5713508 32.7081009,30.970826 C32.1097039,30.3709882 31.6705576,29.7484762 31.49614,29.2867455" id="Fill-5" sketch:type="MSShapeGroup"></path>
            <path d="M24.7290136,0.241681357 C24.7290136,0.241681357 22.3740315,1.63374466 17.1290949,2.15868857 L0.909638535,2.15868857 L0.909638535,2.5510223 L17.1235797,2.5510223 C22.3726527,3.07527911 24.7290136,4.46871661 24.7290136,4.46871661 C25.732087,2.68844217 27.7403021,2.35519899 27.7403021,2.35519899 C27.7403021,2.35519899 25.732087,2.02332999 24.7290136,0.241681357" id="Fill-6" sketch:type="MSShapeGroup"></path>
            <path d="M62.0860885,2.15868857 L46.5498251,2.15868857 C41.3048885,1.63374466 38.9505958,0.241681357 38.9505958,0.241681357 C37.9475224,2.02332999 35.9399967,2.35519899 35.9399967,2.35519899 C35.9399967,2.35519899 37.9475224,2.68844217 38.9505958,4.46871661 C38.9505958,4.46871661 41.3069567,3.07527911 46.5553403,2.5510223 L62.0860885,2.5510223 L62.0860885,2.15868857" id="Fill-7" sketch:type="MSShapeGroup"></path>
            <path d="M21.8886957,29.3259101 C21.8886957,29.3259101 18.7733081,31.1570299 11.8669233,31.883981 L0.909638535,31.883981 L0.909638535,32.4803833 L11.9248327,32.4803833 C18.7891642,33.2128312 21.8886957,35.0363929 21.8886957,35.0363929 C23.2419831,32.6322322 25.9588988,32.1787467 25.9588988,32.1787467 C25.9588988,32.1787467 23.2419831,31.7321321 21.8886957,29.3259101" id="Fill-8" sketch:type="MSShapeGroup"></path>
            <path d="M62.0860885,31.883981 L51.0922656,31.883981 C44.2127674,31.1529073 41.1090996,29.3259101 41.1090996,29.3259101 C39.7558122,31.7300708 37.0368282,32.1835564 37.0368282,32.1835564 C37.0368282,32.1835564 39.7558122,32.6322322 41.1090996,35.0363929 C41.1090996,35.0363929 44.2169038,33.2093957 51.106743,32.4803833 L62.0860885,32.4803833 L62.0860885,31.883981" id="Fill-9" sketch:type="MSShapeGroup"></path>
        </g>
    </g>
</svg>